<svg xmlns="http://www.w3.org/2000/svg" width="1024" height="1024"><path fill="#212121" d="M984.741 707.123 714.559 434.961l29.986-147.696a68.09 68.09 0 0 0 24.269 4.659h.205c38.153.451 69.446-30.111 69.9-68.264.452-38.153-30.113-69.446-68.266-69.898-38.153-.451-69.446 30.111-69.898 68.264a69.037 69.037 0 0 0 3.992 23.972l-158.72 19.371L287.125 5.119a17.06 17.06 0 0 0-12.048-5.12 17.064 17.064 0 0 0-11.947 4.966l-48.402 48.128c-6.662 6.664-6.662 17.468 0 24.132l26.045 26.419c-100.899 185.533-68.127 415.289 80.622 565.213a16.189 16.189 0 0 0 4.677 3.123 99.105 99.105 0 0 0-1.674 17.51v197.974h-204.8c-47.104.056-85.278 38.229-85.333 85.333v34.133c0 9.425 7.642 17.067 17.067 17.067h785.066c9.425 0 17.067-7.642 17.067-17.067v-34.133c-.056-47.104-38.229-85.277-85.333-85.333h-204.8v-87.741a480.95 480.95 0 0 0 97.552 10.24 475.183 475.183 0 0 0 225.28-57.07l26.181 26.334a17.07 17.07 0 0 0 12.05 5.12 17.07 17.07 0 0 0 11.946-4.966l48.402-48.128c6.662-6.665 6.662-17.468 0-24.133zM744.954 199.458c13.366-13.294 34.978-13.234 48.271.13 13.294 13.366 13.234 34.978-.13 48.271a34.14 34.14 0 0 1-24.079 9.933h-.102c-18.85-.098-34.055-15.458-33.957-34.31a34.146 34.146 0 0 1 10.063-24.025h-.066zM704.78 311.603l-19.149 94.259-37.614-37.837 56.763-56.422zm-19.388-28.859-61.44 61.082-47.531-47.787 108.971-13.294zm82.74 638.856c28.277 0 51.2 22.923 51.2 51.2v17.067H68.398V972.8c0-28.277 22.923-51.2 51.2-51.2h648.534zm-238.935-68.267v34.134H358.531v-34.134h170.666zM358.532 819.2V689.493c0-41.403 38.28-75.093 85.333-75.093s85.333 33.69 85.333 75.093V819.2H358.532zm204.8-54.272v-75.435c0-60.227-53.59-109.226-119.467-109.226a121.597 121.597 0 0 0-104.994 57.155c-129.848-136.761-159.087-340.645-72.916-508.388l595.259 598.671a442.262 442.262 0 0 1-297.882 37.222zm361.249-21.88L250.755 65.263l24.149-24.064 253.918 255.352c.118 0 .187.222.307.307l419.669 422.126-24.218 24.064z"/><path fill="#2196f3" d="M444.018 648.533h-.154c-28.277-.042-51.234 22.845-51.278 51.124-.042 28.277 22.847 51.234 51.124 51.276h.154c28.277.042 51.234-22.845 51.276-51.122.044-28.278-22.845-51.235-51.122-51.278zm11.947 63.301a17.07 17.07 0 0 1-12.101 4.966c-9.425-.05-17.026-7.73-16.978-17.155a17.079 17.079 0 0 1 5.031-12.012 17.061 17.061 0 0 1 11.947-4.966c9.425.048 17.026 7.728 16.976 17.153a17.072 17.072 0 0 1-5.029 12.013h.154z"/></svg>