<svg xmlns="http://www.w3.org/2000/svg" width="1024" height="1024"><path fill="#2196f3" d="M1023.171 144.77a17.088 17.088 0 0 0-13.773-11.606l-61.133-8.892-27.358-55.399c-5.734-11.674-24.867-11.674-30.6 0l-27.358 55.399-61.136 8.894a17.106 17.106 0 0 0-13.79 11.606c-1.995 6.179-.342 12.971 4.318 17.494l44.254 43.129-10.443 60.894a17.106 17.106 0 0 0 6.776 16.693c5.307 3.858 12.235 4.334 17.987 1.296l54.683-28.758 54.683 28.758a17.085 17.085 0 0 0 7.954 1.962 17.02 17.02 0 0 0 10.037-3.259 17.042 17.042 0 0 0 6.776-16.693l-10.443-60.896 44.254-43.128a17.123 17.123 0 0 0 4.313-17.494zm-78.815 42.463a17.07 17.07 0 0 0-4.898 15.104l6.11 35.653-32.016-16.827a17.022 17.022 0 0 0-7.955-1.963c-2.73 0-5.443.648-7.954 1.963l-32.019 16.827 6.11-35.653c.957-5.53-.888-11.178-4.898-15.104l-25.925-25.258 35.806-5.206a17.064 17.064 0 0 0 12.853-9.336l16.008-32.427 16.008 32.427a17.066 17.066 0 0 0 12.853 9.336l35.806 5.206-25.891 25.258zM836.272 656.71h-34.134v34.134h34.134V656.71zM836.272 724.979h-34.134v34.134h34.134v-34.134zM870.406 690.845h-34.134v34.134h34.134v-34.134zM802.139 690.845h-34.134v34.134h34.134v-34.134zM716.803 844.447h-34.134v34.134h34.134v-34.134zM716.803 912.715h-34.134v34.134h34.134v-34.134zM750.939 878.582h-34.136v34.134h34.136v-34.134zM682.669 878.582h-34.134v34.134h34.134v-34.134zM512 776.18h-34.134v34.134H512V776.18zM512 844.447h-34.134v34.134H512v-34.134zM546.134 810.313H512v34.134h34.134v-34.134zM477.866 810.313h-34.134v34.134h34.134v-34.134zM187.728 195.903h-34.134v34.134h34.134v-34.134zM187.728 264.173h-34.134v34.134h34.134v-34.134zM221.861 230.039h-34.134v34.134h34.134v-34.134zM153.594 230.039H119.46v34.134h34.134v-34.134z"/><path fill="#212121" d="M790.873 453.102c-9.198-12.408-22.699-20.394-38.026-22.546-15.394-2.184-30.584 1.859-42.872 11.264L669.9 472.54l-60.725 45.347-43.453-17.306c77.483-34.765 131.638-112.267 131.638-202.244 0-122.336-99.928-221.869-222.758-221.869s-222.755 99.533-222.755 221.869c0 44.341 13.259 85.574 35.84 120.27l-88.441-.768h-.154c-.274 0-.494.136-.75.154a16.73 16.73 0 0 0-4.966.99c-.41.154-.835.24-1.227.426-.205.086-.41.102-.614.205l-103.459 51.08c-.018 0-.034 0-.034.016l-60.589 29.137a13.22 13.22 0 0 0-2.014 1.126c-24.15 16.075-32.376 47.65-19.148 73.454 7.048 13.722 19.046 23.827 33.793 28.451a57.863 57.863 0 0 0 17.254 2.645c9.268 0 18.45-2.269 26.862-6.757l44.409-23.621 72.448-37.411 43.419-.256L70.342 710.777c-.016.018-.034.018-.052.034l-42.839 42.667c-10.12 10.07-15.684 23.432-15.684 37.685 0 14.234 5.564 27.63 15.684 37.718 10.394 10.342 24.064 15.531 37.735 15.531 13.688 0 27.34-5.189 37.769-15.531l42.053-41.883 55.706-41.592 28.827 28.706-56.373 56.134c-.016.018-.035.018-.053.034l-42.838 42.666c-10.12 10.07-15.684 23.434-15.684 37.685 0 14.235 5.564 27.63 15.684 37.72 10.394 10.341 24.082 15.53 37.752 15.53s27.358-5.189 37.77-15.53L317.21 837.417c.018-.018.018-.034.034-.053l32.309-32-.12-.12c.205-.203.494-.274.701-.494l165.31-181.062 111.072 15.805c.802.12 1.603.17 2.406.17 2.066 0 4.062-.494 5.99-1.229.563-.203 1.058-.477 1.587-.749.614-.309 1.262-.478 1.845-.87l102.827-68.267c.376-.256.579-.666.938-.938.411-.325.923-.461 1.296-.821l40.686-38.11c21.17-19.836 24.089-52.331 6.783-75.576zm-722.7 115.543c-5.546 2.97-11.844 3.566-17.868 1.656-5.974-1.859-10.82-5.941-13.654-11.453-5.154-10.035-2.168-22.256 6.86-28.859l42.037-20.225 14.37 42.002-31.744 16.88zm111.908-58.487-49.545 25.6-14.044-41.064 64.856-32.019-1.267 47.483zm483.181-211.854c0 29.389-7.014 57.107-19.166 81.904l-133.805-60.776c-1.4-18.346-10.922-34.406-25.224-44.408l46.849-155.531c76.085 24.202 131.346 95.183 131.346 178.81zm-377.246 0c0-103.512 84.618-187.737 188.624-187.737 8.09 0 16.008.682 23.842 1.672l-45.824 152.119c-.614-.019-1.195-.189-1.827-.189-33.042 0-59.923 26.795-59.923 59.734s26.881 59.736 59.923 59.736c22.221 0 41.421-12.27 51.781-30.227l123.598 56.152c-34.39 46.285-89.432 76.477-151.572 76.477-104.003 0-188.621-84.225-188.621-187.737zm190.603 25.6c0 14.115-11.573 25.601-25.789 25.601s-25.787-11.486-25.787-25.601c0-14.114 11.571-25.6 25.787-25.6s25.789 11.486 25.789 25.6zM78.875 804.681c-7.56 7.491-19.798 7.475-27.34.018-3.636-3.637-5.632-8.43-5.632-13.534 0-5.086 1.996-9.882 5.632-13.482l30.786-30.672 27.239 27.121-30.685 30.549zM181.719 924.15c-7.56 7.493-19.814 7.51-27.358.019-3.637-3.637-5.632-8.43-5.632-13.534 0-5.086 1.995-9.883 5.632-13.483l30.806-30.686 27.256 27.121-30.704 30.563zm111.414-111.003c-.019.016-.035.016-.053.034l-56.475 56.321-27.256-27.121 56.422-56.166v-.016c.019-.018.034-.018.053-.034 1.28-1.28 2.082-2.816 2.867-4.334.222-.443.648-.819.837-1.28.53-1.314.614-2.73.819-4.114.102-.787.445-1.518.445-2.323 0-1.144-.41-2.251-.648-3.379-.203-1.024-.205-2.066-.598-3.054-.648-1.603-1.758-3.019-2.918-4.403-.323-.376-.443-.854-.802-1.213h-.018c-.018-.016-.018-.051-.034-.067l-51.424-51.201c-.546-.546-1.245-.768-1.859-1.227-.904-.701-1.774-1.349-2.782-1.845-.971-.478-1.962-.768-2.986-1.042-1.093-.309-2.15-.547-3.294-.632-1.042-.069-2.014.034-3.054.154-1.144.136-2.218.29-3.328.648-1.075.342-2.03.87-3.019 1.434-.632.358-1.349.478-1.947.922l-56.746 42.361-28.826-28.707 76.768-76.357 139.539 137.236-29.681 29.406zm218.201-224.534c-.494-.067-.957.12-1.45.086a16.853 16.853 0 0 0-3.686.222c-.973.17-1.894.358-2.816.682-1.093.376-2.082.888-3.091 1.502-.955.579-1.826 1.194-2.661 1.962-.411.358-.904.53-1.28.938L346.005 758.669 207.508 622.457l90.659-90.182c6.674-6.656 6.709-17.459.051-24.15-3.362-3.362-7.781-5.018-12.202-5v-.016l-70.998.427.888-51.44 99.329.854c40.482 41.405 96.939 67.227 159.405 67.227 13.994 0 27.648-1.45 40.942-3.926 1.28 1.024 2.541 2.067 4.147 2.715l77.11 30.72 4.88 24.269 5.699 28.33-96.085-13.67zm129.316 5.701-10.018-49.853 46.285-34.561 30.294 40.21-66.561 44.205zm120.116-90.592-26.813 25.123-29.798-39.562 26.606-20.394c4.966-3.822 11.23-5.376 17.374-4.574 6.178.87 11.64 4.096 15.36 9.096 6.931 9.336 5.752 22.358-2.73 30.31z"/><path fill="#212121" d="m435.266 593.409-68.574-68.267c-6.638-6.638-17.427-6.638-24.083 0l-68.557 68.267c-3.208 3.226-5.018 7.56-5.018 12.099 0 4.541 1.792 8.893 5.018 12.101l68.557 68.267c3.328 3.31 7.699 4.966 12.051 4.966s8.72-1.656 12.032-4.966l68.574-68.267a17.135 17.135 0 0 0 5.035-12.101c0-4.539-1.811-8.891-5.035-12.099zm-80.607 56.287-44.374-44.187 44.374-44.186 44.39 44.186-44.39 44.187zM549.256 162.265l-8.243 33.145c2.27.563 55.605 14.456 55.605 68.763h34.134c-.001-64.55-53.301-94.894-81.496-101.908zM630.752 298.304h-34.134v34.134h34.134v-34.134z"/></svg>