<svg xmlns="http://www.w3.org/2000/svg" width="1892" height="1024"><path fill="#2196f3" d="M624.932 412.97h-.032c-26.691 0-48.328 19.229-48.328 42.949v.028c0 23.72 21.638 42.949 48.328 42.949h.032c26.691 0 48.328-19.229 48.328-42.949v-.028c0-23.72-21.638-42.949-48.328-42.949zM981.649 399.241c-.076-32.946-14.834-64.524-41.045-87.822s-61.741-36.422-98.813-36.497c-37.083.059-72.628 13.175-98.853 36.477-26.226 23.3-40.992 54.886-41.068 87.843v181.68s279.747-27.689 279.778-181.652v-.028zM478.609 640.551c.067 22.924 10.341 44.892 28.579 61.105s42.953 25.351 68.748 25.419c25.789-.068 50.501-9.203 68.736-25.409s28.515-38.167 28.591-61.087V514.163S478.61 533.444 478.61 640.551zm97.326 22.649c-5.041 0-9.968-1.328-14.16-3.817s-7.457-6.026-9.386-10.165c-1.929-4.138-2.434-8.693-1.45-13.086s3.41-8.43 6.974-11.598c3.565-3.168 8.106-5.325 13.05-6.199s10.067-.425 14.726 1.289c4.657 1.714 8.637 4.618 11.438 8.342s4.295 8.104 4.295 12.584a20.502 20.502 0 0 1-1.912 8.694c-1.276 2.757-3.151 5.265-5.518 7.376-2.369 2.113-5.182 3.789-8.281 4.932s-6.42 1.733-9.775 1.733v-.086zM772.649 650.726h-18.783v19.403h-9.783v-47.478h30.913v7.924h-21.13v12.261h18.783v7.89zm47.022-3.26c0 4.674-.826 8.772-2.479 12.294s-4.021 6.239-7.109 8.152c-3.064 1.913-6.587 2.869-10.565 2.869-3.935 0-7.445-.946-10.533-2.837-3.086-1.891-5.478-4.587-7.174-8.086-1.695-3.522-2.554-7.565-2.576-12.131v-2.347c0-4.674.837-8.783 2.51-12.326 1.696-3.566 4.077-6.294 7.141-8.185 3.088-1.913 6.609-2.869 10.566-2.869s7.467.956 10.533 2.869c3.086 1.891 5.467 4.619 7.141 8.185 1.695 3.543 2.543 7.641 2.543 12.292v2.12zm-9.914-2.152c0-4.978-.89-8.761-2.674-11.347-1.782-2.587-4.326-3.88-7.63-3.88-3.283 0-5.816 1.282-7.599 3.848-1.782 2.543-2.685 6.282-2.706 11.217v2.315c0 4.847.892 8.608 2.674 11.282 1.783 2.675 4.348 4.011 7.696 4.011 3.282 0 5.805-1.282 7.565-3.848 1.761-2.587 2.652-6.348 2.674-11.283v-2.315zm41.642 12.359c0-1.848-.652-3.261-1.957-4.24-1.304-1-3.652-2.044-7.043-3.13-3.391-1.11-6.076-2.196-8.055-3.261-5.39-2.913-8.086-6.837-8.086-11.772 0-2.566.717-4.848 2.152-6.849 1.457-2.021 3.533-3.597 6.229-4.728 2.717-1.13 5.761-1.695 9.13-1.695 3.391 0 6.413.62 9.066 1.859 2.651 1.218 4.706 2.945 6.163 5.185 1.478 2.239 2.217 4.783 2.217 7.63h-9.783c0-2.174-.685-3.858-2.055-5.054-1.369-1.217-3.293-1.825-5.771-1.825-2.392 0-4.251.511-5.576 1.533-1.327 1-1.989 2.326-1.989 3.978 0 1.544.771 2.837 2.315 3.88 1.565 1.044 3.859 2.022 6.88 2.935 5.565 1.674 9.62 3.75 12.163 6.229 2.543 2.478 3.816 5.565 3.816 9.261 0 4.108-1.555 7.337-4.664 9.685-3.108 2.326-7.293 3.489-12.554 3.489-3.652 0-6.978-.663-9.978-1.989-3-1.348-5.294-3.184-6.88-5.511-1.566-2.326-2.349-5.022-2.349-8.087h9.816c0 5.239 3.13 7.859 9.391 7.859 2.326 0 4.142-.467 5.446-1.402 1.304-.956 1.957-2.283 1.957-3.978zm52.206-27.098h-14.544v39.554h-9.783v-39.554h-14.347v-7.924h38.674v7.924zm34.174 18.978h-18.783v12.718h22.044v7.858h-31.826v-47.478h31.761v7.924h-21.978v11.315h18.783v7.663zm26.576 3.196h-7.794v17.38h-9.783v-47.478h17.642c5.609 0 9.934 1.25 12.978 3.75s4.565 6.033 4.565 10.597c0 3.24-.706 5.946-2.119 8.12-1.391 2.153-3.511 3.87-6.359 5.152l10.272 19.403v.456h-10.5l-8.902-17.38zm-7.793-7.924h7.891c2.456 0 4.359-.62 5.707-1.859 1.348-1.261 2.021-2.99 2.021-5.185 0-2.239-.641-4-1.923-5.284-1.261-1.282-3.207-1.923-5.837-1.923h-7.859v14.25zm59.283 8.576v16.728h-9.783v-47.478h18.521c3.565 0 6.696.652 9.392 1.957 2.717 1.304 4.804 3.162 6.261 5.575 1.456 2.392 2.185 5.12 2.185 8.185 0 4.653-1.598 8.326-4.794 11.021-3.174 2.675-7.576 4.011-13.206 4.011h-8.576zm0-7.924h8.739c2.588 0 4.555-.609 5.902-1.827 1.369-1.218 2.055-2.956 2.055-5.217 0-2.326-.686-4.207-2.055-5.642s-3.261-2.174-5.674-2.217h-8.967v14.903zm61.891 4.076h-18.783v12.718h22.044v7.858h-31.826v-47.478h31.761v7.924h-21.978v11.315h18.783v7.663zm45.392-18.978h-14.544v39.554h-9.783v-39.554h-14.348v-7.924h38.675v7.924zm34.17 18.978h-18.777v12.718h22.038v7.858h-31.822v-47.478h31.755v7.924h-21.971v11.315h18.777v7.663zm26.58 3.196h-7.791v17.38h-9.784v-47.478h17.642c5.61 0 9.928 1.25 12.978 3.75 3.039 2.5 4.563 6.033 4.563 10.597 0 3.24-.701 5.946-2.115 8.12-1.391 2.153-3.517 3.87-6.367 5.152l10.273 19.403v.456h-10.496l-8.904-17.38zm-7.792-7.924h7.891c2.449 0 4.352-.62 5.699-1.859 1.358-1.261 2.026-2.99 2.026-5.185 0-2.239-.646-4-1.926-5.284-1.258-1.282-3.206-1.923-5.832-1.923h-7.858v14.25zm57.489 12.848c0-1.848-.657-3.261-1.959-4.24-1.302-1-3.651-2.044-7.046-3.13-3.384-1.11-6.077-2.196-8.047-3.261-5.398-2.913-8.092-6.837-8.092-11.772 0-2.566.712-4.848 2.148-6.849 1.458-2.021 3.539-3.597 6.233-4.728 2.716-1.13 5.766-1.695 9.127-1.695 3.395 0 6.411.62 9.071 1.859 2.649 1.218 4.708 2.945 6.155 5.185 1.48 2.239 2.226 4.783 2.226 7.63h-9.784c0-2.174-.69-3.858-2.059-5.054-1.369-1.217-3.295-1.825-5.766-1.825-2.393 0-4.252.511-5.576 1.533-1.336 1-1.992 2.326-1.992 3.978 0 1.544.768 2.837 2.315 3.88 1.569 1.044 3.862 2.022 6.879 2.935 5.565 1.674 9.617 3.75 12.166 6.229 2.538 2.478 3.818 5.565 3.818 9.261 0 4.108-1.558 7.337-4.664 9.685-3.117 2.326-7.302 3.489-12.555 3.489-3.651 0-6.979-.663-9.984-1.989-2.994-1.348-5.287-3.184-6.879-5.511-1.569-2.326-2.349-5.022-2.349-8.087h9.817c0 5.239 3.128 7.859 9.394 7.859 2.326 0 4.141-.467 5.443-1.402 1.302-.956 1.959-2.283 1.959-3.978z"/></svg>