<svg xmlns="http://www.w3.org/2000/svg" width="1892" height="1024"><path fill="#afb1b8" d="m779.13 275.068 78 73.842-144.782-.086v358.259h378.435V570.104l77.913 73.758V275.068H779.131zm308.229 286.368-221.16-209.368h221.16v209.368zm-68.667 93.242H772.231V413.731h17.421v224.631h229.04v16.316zM830.429 754.78l-9.104 18.749-9.104-18.749h-7.635l13.289 24.999v14.565h6.902v-14.565l13.261-24.999h-7.609zm11.44 39.565 3.207-9.212h15.327l3.233 9.212h7.174l-14.973-39.564h-6.168l-14.946 39.564h7.147zm10.87-31.168 5.733 16.413h-11.468l5.734-16.413zm36.25 15.461a8.994 8.994 0 0 0-1.495 5.028c0 3.334 1.169 6.042 3.506 8.125 2.355 2.065 5.488 3.098 9.402 3.098s7.283-1.06 10.109-3.18l2.228 2.636h7.663l-5.816-6.874c2.283-3.117 3.424-7.111 3.424-11.984h-5.733c0 2.664-.552 5.082-1.657 7.256l-7.637-9.022 2.69-1.957c1.902-1.377 3.27-2.754 4.104-4.131a8.732 8.732 0 0 0 1.25-4.565c0-2.5-.924-4.592-2.771-6.278-1.83-1.703-4.185-2.554-7.066-2.554-3.189 0-5.724.906-7.609 2.718-1.884 1.793-2.826 4.238-2.826 7.336 0 1.269.299 2.582.897 3.941.616 1.358 1.694 3.006 3.233 4.945-2.935 2.101-4.901 3.922-5.897 5.462zm17.853 8.75c-1.938 1.486-4.021 2.228-6.25 2.228-1.975 0-3.551-.57-4.728-1.712-1.178-1.141-1.766-2.627-1.766-4.457 0-2.119 1.087-4.004 3.261-5.652l.843-.598 8.641 10.19zm-7.092-17.527c-1.865-2.301-2.799-4.212-2.799-5.733 0-1.322.381-2.419 1.142-3.288.76-.869 1.784-1.304 3.071-1.304 1.195 0 2.183.372 2.962 1.114.779.725 1.169 1.603 1.169 2.636 0 1.558-.562 2.835-1.685 3.832l-.843.679-3.016 2.065zm64.402 21.495c2.718-2.373 4.276-5.671 4.675-9.892h-6.849c-.362 2.826-1.222 4.846-2.581 6.061-1.359 1.213-3.388 1.82-6.087 1.82-2.953 0-5.199-1.123-6.738-3.369-1.523-2.246-2.283-5.507-2.283-9.783v-3.506c.036-4.221.851-7.418 2.445-9.592 1.613-2.192 3.913-3.288 6.902-3.288 2.572 0 4.52.634 5.842 1.902 1.341 1.25 2.174 3.297 2.5 6.142h6.849c-.435-4.33-1.985-7.681-4.647-10.054-2.664-2.374-6.177-3.561-10.544-3.561-3.242 0-6.105.77-8.587 2.31-2.463 1.54-4.356 3.732-5.679 6.577s-1.983 6.132-1.983 9.864v3.695c.053 3.642.733 6.84 2.038 9.592 1.304 2.754 3.152 4.883 5.543 6.387 2.41 1.485 5.19 2.228 8.342 2.228 4.511 0 8.125-1.178 10.842-3.533zm40.408-5.544c1.341-2.934 2.011-6.34 2.011-10.217v-2.202c-.018-3.859-.707-7.237-2.066-10.135-1.358-2.917-3.288-5.146-5.788-6.685-2.482-1.558-5.335-2.337-8.559-2.337s-6.087.788-8.587 2.364c-2.482 1.558-4.411 3.813-5.788 6.766-1.359 2.953-2.038 6.359-2.038 10.218v2.228c.018 3.787.706 7.129 2.065 10.027 1.377 2.898 3.316 5.136 5.816 6.712 2.518 1.558 5.38 2.337 8.587 2.337 3.242 0 6.105-.779 8.586-2.337 2.5-1.576 4.421-3.822 5.761-6.739zm-7.364-22.363c1.666 2.336 2.5 5.697 2.5 10.081v2.066c0 4.457-.825 7.844-2.473 10.163-1.629 2.318-3.967 3.478-7.01 3.478-3.007 0-5.363-1.188-7.066-3.561-1.685-2.373-2.528-5.733-2.528-10.081v-2.283c.037-4.257.888-7.545 2.554-9.864 1.685-2.337 4.013-3.506 6.984-3.506 3.043 0 5.389 1.169 7.038 3.506z"/></svg>