<svg xmlns="http://www.w3.org/2000/svg" width="1892" height="1024"><path fill="#afb1b8" d="M950.817 483.152c-4.932-6.565-7.292-14.324-6.731-22.134v-32.091c0-9.837 2.231-17.313 6.693-22.428 4.461-5.114 12.125-7.661 22.99-7.639 10.21 0 17.457 2.176 21.742 6.529 4.675 5.554 6.949 12.346 6.428 19.196v7.542h-18.263v-7.64c.065-2.5-.112-5.001-.53-7.475-.263-1.693-1.182-3.258-2.609-4.44-1.875-1.274-4.237-1.892-6.617-1.731-2.502-.161-4.984.491-6.958 1.829-1.591 1.31-2.651 3.026-3.025 4.896a37.084 37.084 0 0 0-.718 7.934v38.947c-.288 3.758.518 7.517 2.344 10.937.908 1.156 2.169 2.074 3.645 2.65a10.01 10.01 0 0 0 4.712.614c2.34.166 4.661-.467 6.466-1.763 1.488-1.276 2.445-2.94 2.723-4.734.426-2.583.617-5.192.568-7.802v-7.9h18.263v7.215c.513 7.141-1.705 14.229-6.314 20.175-4.197 4.767-11.344 7.15-21.856 7.15s-18.453-2.547-22.952-7.836zM1026.859 483.479c-4.614-4.995-6.92-12.276-6.92-21.906v-33.756c0-9.532 2.306-16.747 6.92-21.644 4.612-4.897 12.327-7.335 23.14-7.313 10.739 0 18.415 2.438 23.028 7.313 4.614 4.897 6.958 12.112 6.958 21.644v33.756c0 9.532-2.344 16.845-7.033 21.872-4.688 5.028-12.326 7.542-22.952 7.542s-18.49-2.547-23.14-7.509zm31.649-8.096c1.652-3.129 2.404-6.556 2.194-9.99v-41.331c.211-3.367-.529-6.728-2.156-9.794-.926-1.181-2.219-2.114-3.73-2.691s-3.18-.776-4.816-.573c-1.641-.197-3.312.003-4.828.58s-2.816 1.506-3.754 2.685c-1.663 3.056-2.416 6.422-2.193 9.794v41.527c-.23 3.435.523 6.865 2.193 9.99 1.064 1.053 2.379 1.897 3.852 2.475s3.074.877 4.694.877c1.618 0 3.219-.299 4.693-.877s2.788-1.422 3.852-2.475v-.196zM1101.952 399.845h19.662l14.781 62.281 15.126-62.281h19.133l1.937 89.897h-14.147l-1.514-62.477-14.592 62.477h-11.342l-15.126-62.707-1.402 62.707h-14.293l1.776-89.897zM1194.63 399.845h30.631c17.642 0 26.468 8.508 26.468 25.527 0 16.299-9.294 24.438-27.871 24.416h-10.429v39.955h-18.911l.111-89.897zm26.167 38.42c1.87.205 3.762.057 5.565-.434a13.635 13.635 0 0 0 4.831-2.405c2.17-3.036 3.128-6.603 2.727-10.152.1-2.743-.211-5.485-.913-8.161a6.49 6.49 0 0 0-1.391-2.467 7.793 7.793 0 0 0-2.382-1.81 19.61 19.61 0 0 0-8.437-1.436h-7.335v26.864h7.335zM1278.987 399.845h20.313l20.836 89.897h-17.631l-4.118-20.728h-18.109l-4.241 20.728h-17.875l20.825-89.897zm17.364 58.757-7.079-37.734-7.068 37.734h14.147zM1336.954 399.845h13.234l25.333 51.281v-51.281h15.694v89.897h-12.589l-25.489-53.534v53.534h-16.217l.033-89.897zM1427.968 455.466l-21.059-55.495h17.742l12.856 35.647 12.054-35.647h17.363l-20.803 55.495v34.276h-18.154v-34.276zM980.009 529.047v4.701h-15.427v36.529h-6.467v-36.529h-15.502v-4.701h37.396zM1028.371 570.281h-4.992a2.218 2.218 0 0 1-1.399-.392 2.152 2.152 0 0 1-.831-.946l-4.462-9.794h-21.402l-4.462 9.794c-.127.41-.36.788-.681 1.11a2.312 2.312 0 0 1-1.398.392h-4.992l18.906-41.228h6.58l19.133 41.065zm-31.31-15.31h17.849l-7.563-16.778a29.993 29.993 0 0 1-1.399-3.885c-.265.784-.492 1.534-.718 2.187l-.681 1.73-7.487 16.746zM1060.965 566.232a39.74 39.74 0 0 0 3.554 0 21.26 21.26 0 0 0 3.025-.49 23.395 23.395 0 0 0 2.723-.751c.833-.294 1.664-.653 2.533-1.012v-9.273h-7.562c-.187.01-.374-.014-.55-.071s-.336-.142-.471-.255c-.125-.092-.223-.208-.288-.338s-.097-.27-.09-.413v-3.167h14.671v15.802a28.015 28.015 0 0 1-7.978 3.363 33.929 33.929 0 0 1-4.727.849 56.785 56.785 0 0 1-5.52.26 28.835 28.835 0 0 1-9.53-1.534c-2.83-.983-5.403-2.449-7.562-4.31-2.105-1.88-3.762-4.098-4.877-6.529a20.613 20.613 0 0 1-1.74-8.554 21.357 21.357 0 0 1 1.702-8.619c1.087-2.443 2.748-4.667 4.877-6.529 2.158-1.855 4.732-3.31 7.563-4.277a31.755 31.755 0 0 1 10.133-1.535 38.117 38.117 0 0 1 5.256.36c1.537.216 3.045.567 4.5 1.045 1.322.429 2.59.976 3.781 1.632a26.852 26.852 0 0 1 3.29 2.155l-1.815 2.547a1.566 1.566 0 0 1-.613.565 1.892 1.892 0 0 1-.861.218 2.475 2.475 0 0 1-1.172-.326 23.827 23.827 0 0 1-1.853-.979 16.822 16.822 0 0 0-2.533-1.11 23.615 23.615 0 0 0-3.478-.915 28.98 28.98 0 0 0-4.803-.358 22.373 22.373 0 0 0-7.297 1.142c-2.105.729-4.001 1.843-5.559 3.265-1.567 1.483-2.765 3.228-3.517 5.127a19.284 19.284 0 0 0 0 13.744c.828 1.939 2.116 3.708 3.782 5.191 1.55 1.415 3.433 2.528 5.521 3.265 2.404.713 4.952.991 7.486.817zM1121.235 565.577h20.647v4.7h-26.958v-41.23h6.467l-.156 36.53zM1163.364 570.278h-6.467v-41.23h6.467v41.23zM1187.406 529.243c.39.189.723.445.991.751l27.637 31.08a10.911 10.911 0 0 1 0-1.469V528.885h5.632v41.396h-3.25a3.093 3.093 0 0 1-1.402-.229 3.58 3.58 0 0 1-1.013-.784l-27.603-31.047v32.06h-5.409v-41.234h3.361c.367.001.723.068 1.057.196zM1269.27 529.047v4.538h-22.906v13.614h18.566v4.374h-18.566v14.07h22.906v4.538h-29.562v-41.134h29.562zM591.713 274.426l287.111 70.381v246.628l-287.111-70.349v-246.66zm-18.414-21.023v279.664l323.902 79.423V332.859l-323.902-79.457z"/><path fill="#afb1b8" d="m746.896 742.313-323.939-79.49V383.189l323.939 79.458v279.667z"/><path fill="#afb1b8" d="m578.668 271.26 283.366 69.498-120.508 104.068-283.404-69.532 120.546-104.035zm-5.369-17.857L422.957 383.195l323.939 79.455L897.2 332.859l-323.901-79.456zM765.122 726.581 897.2 612.524 765.122 580.11v146.471z"/></svg>