<svg xmlns="http://www.w3.org/2000/svg" width="1892" height="1024"><path fill="#afb1b8" d="M913.96 263.209h-1.52c-2.336-.142-4.674-.198-7.011-.255h-5.068c-4.421 0-8.927.112-13.403.339a7.135 7.135 0 0 0-1.013 0 314.687 314.687 0 0 0-117.049 29.861l-4.815 2.321v246.44l11.263-3.821c9.883-3.396 20.413-6.453 31.31-9.284a382.172 382.172 0 0 1 90.103-11.972v32.38c-4.027.028-7.94.141-11.854.339h-.929a360.136 360.136 0 0 0-69.323 10.642 352.08 352.08 0 0 0-82.584 32.181V276.312a330.897 330.897 0 0 1 86.639-35.238 331.564 331.564 0 0 1 81.655-10.529h4.758c5.688.141 11.235.396 16.444.792a234.802 234.802 0 0 1 40.686 6.482v31.87a251.677 251.677 0 0 0-39.42-5.944l-.808-.069c-2.747-.235-5.497-.469-8.062-.469zm56.089 32.577c7.067.538 14.388.792 21.793.792a350.207 350.207 0 0 0 85.85-11.01 353.588 353.588 0 0 0 82.556-32.209v310.435a331.798 331.798 0 0 1-86.666 35.239 333.256 333.256 0 0 1-81.655 10.5 249.354 249.354 0 0 1-61.945-7.303V289.785c4.786 1.104 9.714 2.123 14.726 2.972 8.222 1.387 16.895 2.406 25.342 3.029zm157.987 2.406-11.264 3.792a494.421 494.421 0 0 1-31.309 9.368 381.394 381.394 0 0 1-93.566 12.001c-7.348 0-14.106-.198-20.638-.622l-8.982-.594v253.516l7.715.68c7.152.622 14.53.934 21.963.934a299.272 299.272 0 0 0 73.687-9.539 308.891 308.891 0 0 0 57.576-20.69l4.819-2.321V298.192zM753.943 700.388c-1.618-1.68-3.571-2.997-5.729-3.871s-4.476-1.28-6.801-1.195a18.668 18.668 0 0 0-7.236 1.359 16.71 16.71 0 0 0-5.632 3.708 16.317 16.317 0 0 0-3.632 5.661 18.377 18.377 0 0 0-1.296 6.991v42.229c-.1 2.976.467 5.936 1.662 8.662a16.947 16.947 0 0 0 4.223 5.66 14.8 14.8 0 0 0 5.801 3.001 23.47 23.47 0 0 0 6.307.877 15.8 15.8 0 0 0 6.814-1.471 17.825 17.825 0 0 0 5.632-3.906 18.39 18.39 0 0 0 3.688-5.661 17.065 17.065 0 0 0 1.352-6.736v-4.727h-11.038v3.764a9.791 9.791 0 0 1-.648 3.764 6.752 6.752 0 0 1-1.605 2.377 6.742 6.742 0 0 1-2.308 1.218 7.755 7.755 0 0 1-2.308.396 5.612 5.612 0 0 1-5.181-2.265 9.998 9.998 0 0 1-1.464-5.66v-39.371a13.437 13.437 0 0 1 1.351-6.312c.573-.892 1.384-1.603 2.34-2.054s2.018-.621 3.066-.494a5.87 5.87 0 0 1 4.928 2.378 8.977 8.977 0 0 1 1.83 5.661v3.652h10.926v-4.303a19.928 19.928 0 0 0-1.352-7.387 17.389 17.389 0 0 0-3.689-5.944zM819.522 699.906a19.641 19.641 0 0 0-12.557-4.641c-2.248.01-4.478.412-6.589 1.189a17.862 17.862 0 0 0-5.828 3.453 17.36 17.36 0 0 0-4.281 5.916 19.725 19.725 0 0 0-1.605 8.18v40.503a19.536 19.536 0 0 0 1.605 8.293c1 2.178 2.46 4.11 4.281 5.661a17.255 17.255 0 0 0 5.828 3.566 19.325 19.325 0 0 0 6.589 1.189 19.027 19.027 0 0 0 6.588-1.189 18.411 18.411 0 0 0 5.969-3.566 17.277 17.277 0 0 0 4.167-5.661 19.52 19.52 0 0 0 1.605-8.293v-40.503c.055-2.81-.493-5.6-1.605-8.18a18.278 18.278 0 0 0-4.167-5.916zm-5.153 54.598a7.265 7.265 0 0 1-2.196 5.859 8.084 8.084 0 0 1-10.391 0 7.266 7.266 0 0 1-2.196-5.859v-40.503a7.28 7.28 0 0 1 2.196-5.859c1.458-1.222 3.296-1.892 5.195-1.892s3.738.67 5.196 1.892a7.273 7.273 0 0 1 2.196 5.859v40.503zM905.653 772.591v-76.674h-10.615L881.1 736.504h-.197l-14.051-40.587h-10.503v76.674h10.953v-46.644h.197l10.728 32.974h5.463l10.812-32.974h.197v46.644h10.953zM967.881 701.293a15.217 15.217 0 0 0-6.195-4.189 24.316 24.316 0 0 0-7.94-1.189h-16.274v76.675h10.925v-29.945h5.631a19.973 19.973 0 0 0 9.855-2.095 15.92 15.92 0 0 0 5.998-5.859 18.342 18.342 0 0 0 2.505-6.679c.43-2.885.628-5.8.591-8.717a43.65 43.65 0 0 0-1.07-10.953 16.333 16.333 0 0 0-4.026-7.048zm-5.632 23.378a9.646 9.646 0 0 1-1.014 3.991 6.15 6.15 0 0 1-2.815 2.689 11.22 11.22 0 0 1-5.153.962h-4.983v-26.067h5.631a10.474 10.474 0 0 1 4.927.963 6.176 6.176 0 0 1 2.562 2.83c.598 1.347.923 2.799.957 4.273v5.096c0 1.784.112 3.623 0 5.264h-.112zM1019.634 695.917h-8.954l-16.894 76.674h10.925l3.21-16.472h14.895l3.21 16.472h10.926l-17.317-76.674zm-10.081 49.758 5.378-27.794h.197l5.35 27.794h-10.926zM1090.223 742.108h-.197l-16.5-46.191h-10.503v76.674h10.925v-46.107h.226l16.697 46.107h10.277v-76.674h-10.925v46.191zM1156.986 695.917l-8.793 30.483h-.223l-8.782-30.483h-11.576l15.004 44.267v32.407h10.93v-32.407l15.004-44.267h-11.565zM723.478 794.242h5.266v14.775h3.575v-14.775h5.238v-3.029h-14.079v3.029zM767.741 791.214l-6.899 17.803h3.801l1.465-4.048h7.096l1.52 4.048h3.886l-7.068-17.803h-3.801zm-.564 10.755 2.422-6.595 2.421 6.595h-4.843zM811.497 802.452h4.112v2.292a6.813 6.813 0 0 1-4.224 1.5 4.477 4.477 0 0 1-2.091-.388 4.51 4.51 0 0 1-1.682-1.31 7.443 7.443 0 0 1-1.323-4.641c0-3.962 1.717-5.944 5.124-5.944a3.759 3.759 0 0 1 2.534.666 3.801 3.801 0 0 1 1.493 2.165l3.519-.679c-.76-3.482-3.266-5.237-7.546-5.237a8.953 8.953 0 0 0-6.222 2.293c-.897.886-1.592 1.958-2.034 3.14s-.623 2.449-.529 3.71a9.7 9.7 0 0 0 2.281 6.679c.872.899 1.928 1.597 3.094 2.047s2.416.64 3.663.557a10.695 10.695 0 0 0 7.546-2.829v-7.02h-7.716v3.001zM856.182 791.214h-3.604v17.803h12.473v-3.029h-8.869v-14.775zM893.969 791.214h-3.604v17.803h3.604v-17.803zM930.911 803.101l-7.293-11.887h-3.492v17.803h3.35v-11.634l7.152 11.634h3.576v-17.803h-3.295v11.887zM964.305 801.176h8.87v-3.029h-8.87v-3.906h9.545v-3.029h-13.149v17.803h13.516v-3.029h-9.912v-4.812zM1045.284 798.232h-7.011v-7.019h-3.575v17.803h3.575v-7.784h7.011v7.784h3.576v-17.803h-3.576v7.019zM1078.875 801.176h8.898v-3.029h-8.898v-3.906h9.573v-3.029h-13.149v17.803h13.487v-3.029h-9.911v-4.812zM1124.43 801.176c3.105-.481 4.675-2.123 4.675-4.953a4.227 4.227 0 0 0-.334-2.222 4.152 4.152 0 0 0-1.414-1.741 10.063 10.063 0 0 0-5.209-1.047h-7.546v17.803h3.584v-7.444h.701a4.822 4.822 0 0 1 2.226.396c.523.323.957.77 1.269 1.302l3.885 5.661h4.274l-2.17-3.482a12.352 12.352 0 0 0-3.94-4.274zm-3.606-2.462h-2.638v-4.472h2.816a9.339 9.339 0 0 1 3.629.425c.256.229.467.515.601.836s.2.668.178 1.016a2.368 2.368 0 0 1-.267.994 2.383 2.383 0 0 1-.679.777c-1.18.36-2.404.504-3.64.424zM1158.79 801.176h8.86v-3.029h-8.86v-3.906h9.572v-3.029h-13.178v17.803h13.512v-3.029h-9.906v-4.812z"/></svg>