<svg xmlns="http://www.w3.org/2000/svg" width="1892" height="1024"><path fill="#afb1b8" d="M761.392 724.607c.177.004.352.039.513.102s.306.155.427.267l2.428 2.321c-1.884 1.878-4.213 3.38-6.827 4.404a26.629 26.629 0 0 1-9.681 1.582 25.75 25.75 0 0 1-9.104-1.477c-2.603-.946-4.942-2.366-6.859-4.166-1.956-1.867-3.463-4.055-4.431-6.435a21.428 21.428 0 0 1-1.547-8.254 20.039 20.039 0 0 1 1.668-8.28c1.061-2.395 2.659-4.582 4.704-6.435 2.072-1.815 4.551-3.243 7.284-4.193a28.562 28.562 0 0 1 9.377-1.477 25.268 25.268 0 0 1 8.71 1.345 23.491 23.491 0 0 1 6.525 3.719l-2.034 2.479c-.14.175-.315.326-.516.449-.239.142-.53.208-.819.185a1.962 1.962 0 0 1-.879-.264l-1.093-.66-1.517-.844a17.23 17.23 0 0 0-2.034-.817 21.09 21.09 0 0 0-2.761-.659 21.17 21.17 0 0 0-3.612-.264 19.589 19.589 0 0 0-6.736 1.107c-1.995.7-3.794 1.761-5.28 3.111-1.514 1.437-2.68 3.123-3.429 4.959a16.649 16.649 0 0 0-1.244 6.539 17.007 17.007 0 0 0 1.244 6.646c.74 1.819 1.884 3.495 3.368 4.931 1.39 1.339 3.113 2.385 5.038 3.06a18.051 18.051 0 0 0 6.252 1.054 26.303 26.303 0 0 0 3.702-.21 14.653 14.653 0 0 0 5.614-1.768 18.266 18.266 0 0 0 2.397-1.635 1.911 1.911 0 0 1 1.153-.422zM831.492 712.947a20.12 20.12 0 0 1-1.64 8.201c-.988 2.379-2.547 4.549-4.57 6.367-2.025 1.819-4.469 3.243-7.174 4.181a29.555 29.555 0 0 1-18.451 0c-2.686-.952-5.114-2.38-7.131-4.193-2.022-1.851-3.592-4.039-4.612-6.433-2.186-5.311-2.186-11.117 0-16.427 1.035-2.396 2.602-4.591 4.612-6.461 2.034-1.755 4.461-3.129 7.131-4.034a29.051 29.051 0 0 1 18.451 0c2.696.952 5.134 2.379 7.162 4.193 1.998 1.832 3.555 3.992 4.581 6.354a20.26 20.26 0 0 1 1.64 8.253zm-6.373 0a17.416 17.416 0 0 0-1.153-6.593c-.68-1.82-1.785-3.498-3.247-4.931-1.422-1.355-3.174-2.418-5.129-3.111a21.349 21.349 0 0 0-13.413 0c-1.953.693-3.705 1.756-5.128 3.111-1.483 1.424-2.599 3.104-3.278 4.931a19.345 19.345 0 0 0 0 13.185c.686 1.824 1.802 3.504 3.278 4.931 1.425 1.347 3.177 2.401 5.128 3.085a21.868 21.868 0 0 0 13.413 0c1.952-.685 3.704-1.739 5.129-3.085 1.455-1.436 2.56-3.113 3.247-4.931a17.274 17.274 0 0 0 1.153-6.593zM879.319 719.858l.638 1.477c.243-.528.455-1.003.698-1.477.232-.495.494-.979.789-1.45l15.507-24.494c.304-.422.577-.685.88-.765a4.131 4.131 0 0 1 1.274-.131h4.582v39.838h-5.433V702.325a10.813 10.813 0 0 1 0-1.371l-15.598 24.836a2.25 2.25 0 0 1-.913.906 2.74 2.74 0 0 1-1.332.333h-.88c-.473.006-.937-.108-1.336-.328s-.715-.536-.91-.91l-16.053-24.995V732.778h-5.249v-39.759h4.582c.43-.022.861.022 1.274.131.376.163.676.433.849.765l15.841 24.52c.312.453.575.929.789 1.424zM937.676 717.879v14.923h-6.069v-39.785h13.535c2.556-.042 5.103.25 7.556.869 1.965.484 3.787 1.329 5.341 2.479 1.348 1.077 2.387 2.413 3.034 3.902a11.966 11.966 0 0 1 1.032 5.088 11.412 11.412 0 0 1-1.122 5.089c-.73 1.526-1.851 2.888-3.278 3.981-1.557 1.197-3.387 2.096-5.372 2.636a25.608 25.608 0 0 1-7.314.923l-7.344-.105zm0-4.272h7.344a16.97 16.97 0 0 0 4.704-.605 10.292 10.292 0 0 0 3.399-1.714 7.067 7.067 0 0 0 2.064-2.637c.496-1.063.745-2.2.728-3.348a6.719 6.719 0 0 0-.609-3.241 7.66 7.66 0 0 0-2.121-2.717c-2.318-1.573-5.231-2.335-8.164-2.136h-7.344v16.398zM1019.248 732.855h-4.795a2.281 2.281 0 0 1-1.336-.37 2.487 2.487 0 0 1-.789-.923l-4.127-9.624h-20.726l-4.28 9.624a2.189 2.189 0 0 1-.758.897c-.386.269-.87.41-1.366.395h-4.795l18.208-39.843h6.312l18.451 39.843zm-30.043-14.793h17.115l-7.223-16.217a26.455 26.455 0 0 1-1.366-3.744l-.698 2.084a18.807 18.807 0 0 1-.668 1.687l-7.161 16.19zM1045.468 693.198c.363.173.675.416.91.711l26.553 30.033V693.013h5.433v39.841h-3.035a2.951 2.951 0 0 1-1.244-.237 3.321 3.321 0 0 1-.971-.738l-26.523-30.007c.029.456.029.914 0 1.371v29.61h-5.433v-39.841h3.217c.376-.009.749.053 1.093.185zM1123.094 717.009v15.821h-6.066v-15.821l-16.785-23.994h5.433c.467-.024.931.097 1.304.342.331.256.608.56.819.897l10.497 15.478c.423.659.79 1.266 1.091 1.845.312.58.557 1.134.768 1.687l.79-1.714c.289-.627.634-1.234 1.024-1.819l10.351-15.584c.211-.311.479-.594.79-.844a2.013 2.013 0 0 1 1.302-.395h5.498l-16.818 24.1zM876.315 626.155c2.64.291 5.31.528 8.012.739 40.947-15.915 75.587-41.964 99.588-74.889 24.003-32.926 36.303-71.268 35.364-110.234l-45.125-39.208c9.175 41.486 4.883 84.373-12.396 123.861s-46.864 74.02-85.443 99.731z"/><path fill="#afb1b8" d="m860.201 624.332 1.214.21c41.225-25.62 72.656-61.397 90.229-102.704s20.476-86.245 8.337-129.002l-64.274-55.844c25.997 45.903 36.461 97.274 30.176 148.141s-29.063 99.137-65.682 139.198zM1078.182 487.808c-10.92 42.814-37.441 81.428-75.625 110.107-11.152 8.421-23.18 15.924-35.93 22.411 31.093-7.94 59.671-21.978 83.532-41.031s42.367-42.614 54.092-68.864l-26.069-22.623z"/><path fill="#afb1b8" d="m1067.955 481.504-37.114-32.247c-.709 36.765-12.739 72.694-34.838 104.053s-53.462 57.002-90.828 74.266h.181a241.985 241.985 0 0 0 24.915-1.292c34.921-12.384 65.769-32.086 89.794-57.348 24.024-25.263 40.477-55.299 47.89-87.431zM865.573 313.443l-44.277-38.521c-39.581 13.289-73.622 36.65-97.668 67.027s-36.978 66.354-37.101 103.223c.148 40.739 15.93 80.27 44.847 112.338s69.318 54.842 114.808 64.715c40.608-42.986 64.384-96.104 67.871-151.632 3.487-55.53-13.496-110.58-48.48-157.149zM1170.254 475.573c-.156-48.334-22.328-94.648-61.666-128.825s-92.643-53.439-148.273-53.579c-25.706-.023-51.193 4.098-75.169 12.154l271.084 235.532c9.283-20.819 14.035-42.956 14.024-65.283z"/></svg>