<svg xmlns="http://www.w3.org/2000/svg" width="1024" height="1024"><path fill="#2196f3" d="M477.617 478.868h34.115v153.52h-34.115v-153.52zM614.078 547.098h34.115v85.289h-34.115v-85.289zM341.154 598.272h34.115v34.115h-34.115v-34.115zM238.809 581.214h34.115v51.172h-34.115v-51.172z"/><path fill="#212121" d="M51.173 905.311h818.772c28.259 0 51.172-22.913 51.172-51.174v-68.231c0-28.261-22.913-51.174-51.172-51.174h-17.058V309.346l96.891-91.786c22.489 11.087 49.708 4.356 64.424-15.958 14.727-20.306 12.661-48.266-4.88-66.19s-45.444-20.598-66.074-6.33c-20.622 14.276-27.952 41.336-17.357 64.066l-73.004 69.206v-39.355c0-28.259-22.913-51.172-51.174-51.172H119.404c-28.26 0-51.173 22.913-51.173 51.172v511.732H51.173C22.913 734.731 0 757.644 0 785.905v68.231c0 28.261 22.913 51.174 51.173 51.174zM972.291 154.77c9.419 0 17.058 7.638 17.058 17.058s-7.639 17.057-17.058 17.057c-9.421 0-17.058-7.638-17.058-17.057 0-9.421 7.638-17.058 17.058-17.058zm-869.945 68.231c0-9.419 7.638-17.057 17.058-17.057h682.309c9.421 0 17.058 7.638 17.058 17.057v71.638l-34.115 32.417v-69.939c0-9.419-7.638-17.057-17.058-17.057H153.52c-9.42 0-17.058 7.638-17.058 17.057V683.56c0 9.421 7.638 17.058 17.058 17.058h614.078c9.421 0 17.058-7.638 17.058-17.058V373.981l34.115-32.325v393.077H102.346V223.001zm153.519 221.751c-23.079-.067-43.343 15.309-49.481 37.554-6.14 22.247 3.365 45.843 23.213 57.62 19.839 11.777 45.117 8.82 61.7-7.229l59.294 29.75c6.889 3.449 15.242 1.833 20.364-3.922l126.043-141.801 123.901 92.842c6.647 4.981 15.925 4.449 21.956-1.257L750.54 406.304v260.197H170.577V274.173H750.54v85.131l-120.687 114.29-124.943-93.668c-7.096-5.313-17.083-4.314-22.98 2.307L354.155 526l-47.767-23.887a48.37 48.37 0 0 0 .65-6.189c0-28.259-22.913-51.172-51.174-51.172zm17.059 51.173c0 9.421-7.638 17.058-17.058 17.058-9.419 0-17.057-7.638-17.057-17.058 0-9.419 7.638-17.057 17.057-17.057 9.421 0 17.058 7.638 17.058 17.057zM375.27 768.848h170.578v17.058c0 9.419-7.638 17.057-17.058 17.057H392.329c-9.421 0-17.058-7.638-17.058-17.057v-17.058zM34.115 785.907c0-9.421 7.638-17.058 17.058-17.058h289.981v17.058c0 28.259 22.913 51.174 51.174 51.174h136.461c28.261 0 51.174-22.914 51.174-51.174v-17.058h289.982c9.419 0 17.057 7.638 17.057 17.058v68.231c0 9.421-7.638 17.058-17.057 17.058H51.173c-9.42 0-17.058-7.638-17.058-17.058v-68.231z"/></svg>