<svg xmlns="http://www.w3.org/2000/svg" width="1024" height="1024"><path fill="#fff" d="M1024 511.998c0 141.386-57.307 269.386-149.96 362.04-92.656 92.653-220.656 149.96-362.04 149.96s-269.384-57.307-362.039-149.96C57.307 781.385 0 653.385 0 511.998 0 370.614 57.307 242.614 149.961 149.96S370.616-.001 512-.001 781.384 57.306 874.04 149.96C966.693 242.614 1024 370.614 1024 511.998z"/><path fill="#afb1b8" d="M744.611 744.727v-.019h.116V574.003c0-83.51-17.978-147.84-115.607-147.84-46.934 0-78.429 25.756-91.287 50.171h-1.357v-42.375h-92.567v310.749h96.386V590.836c0-40.513 7.68-79.688 57.854-79.688 49.434 0 50.171 46.234 50.171 82.288v151.291h96.291zM286.953 433.978h96.505v310.749h-96.505V433.978zM335.167 279.273c-30.857 0-55.894 25.037-55.894 55.894 0 30.855 25.037 56.415 55.894 56.415 30.855 0 55.892-25.56 55.892-56.415-.019-30.857-25.055-55.894-55.892-55.894z"/></svg>