<svg xmlns="http://www.w3.org/2000/svg" width="1365" height="1024"><path fill="#757575" d="M1237.333 0H128.001C57.417 0 0 57.417 0 128.001V896c0 70.579 57.417 128 128.001 128h1109.332c70.579 0 128-57.421 128-128V128.001c0-70.584-57.421-128.001-128-128.001zm0 85.333c5.794 0 11.307 1.203 16.35 3.303L682.666 583.542 111.643 88.636c5.042-2.097 10.557-3.303 16.354-3.303h1109.335zm0 853.334H128.001c-23.541 0-42.668-19.123-42.668-42.667V178.791l569.375 493.458c8.043 6.956 18 10.417 27.959 10.417s19.916-3.457 27.959-10.417l569.375-493.458V896c0 23.543-19.123 42.667-42.667 42.667z"/></svg>