<svg xmlns="http://www.w3.org/2000/svg" width="1024" height="1024"><path fill="#fff" d="M1024 511.998c0 141.386-57.307 269.386-149.96 362.04-92.656 92.653-220.656 149.96-362.04 149.96s-269.384-57.307-362.039-149.96C57.307 781.385 0 653.385 0 511.998 0 370.614 57.307 242.614 149.961 149.96S370.616-.001 512-.001 781.384 57.306 874.04 149.96C966.693 242.614 1024 370.614 1024 511.998z"/><path fill="#afb1b8" d="M589.517 356.557h42.494V282.55c-7.331-1.008-32.545-3.277-61.905-3.277-61.265 0-103.235 38.535-103.235 109.363v65.182h-67.607v82.735h67.607v208.175h82.89V536.572h64.873l10.298-82.735h-75.19V396.84c.019-23.913 6.458-40.283 39.775-40.283z"/></svg>