<svg xmlns="http://www.w3.org/2000/svg" width="640" height="1024"><path fill="#757575" d="M544 0H96C43.062 0 0 43.062 0 96v832c0 52.941 43.062 96 96 96h448c52.938 0 96-43.059 96-96V96c0-52.938-43.062-96-96-96zM96 64h448c17.656 0 32 14.344 32 32v672H64V96c0-17.656 14.344-32 32-32zm448 896H96c-17.656 0-32-14.342-32-32v-96h512v96c0 17.658-14.344 32-32 32z"/><path fill="#757575" d="M150.627 879.29c12.497 11.674 12.497 30.592 0 42.259-12.497 11.674-32.757 11.674-45.254 0-12.497-11.667-12.497-30.586 0-42.259 12.497-11.667 32.757-11.667 45.254 0z"/></svg>