<svg xmlns="http://www.w3.org/2000/svg" width="1024" height="1024"><path fill="#fff" d="M1024 511.998c0 141.386-57.307 269.386-149.96 362.04-92.656 92.653-220.656 149.96-362.04 149.96s-269.384-57.307-362.039-149.96C57.307 781.385 0 653.385 0 511.998 0 370.614 57.307 242.614 149.961 149.96S370.616-.001 512-.001 781.384 57.306 874.04 149.96C966.693 242.614 1024 370.614 1024 511.998z"/><path fill="#afb1b8" d="M744.727 367.681c-17.308 7.592-35.754 12.623-54.982 15.067 19.782-11.809 34.881-30.371 41.977-52.741-18.441 10.996-38.805 18.765-60.509 23.098-17.513-18.646-42.473-30.196-69.702-30.196-52.827 0-95.36 42.88-95.36 95.448 0 7.561.64 14.834 2.213 21.758-79.332-3.868-149.527-41.889-196.685-99.81-8.234 14.285-13.061 30.634-13.061 48.233 0 33.047 17.017 62.341 42.384 79.302-15.332-.291-30.371-4.741-43.113-11.753v1.047c0 46.371 33.075 84.887 76.451 93.759-7.768 2.125-16.233 3.142-25.018 3.142-6.109 0-12.276-.347-18.067-1.629 12.365 37.79 47.448 65.573 89.165 66.474-32.465 25.398-73.686 40.697-118.312 40.697-7.827 0-15.332-.347-22.838-1.308 42.268 27.259 92.365 42.822 146.385 42.822 175.593 0 271.593-145.455 271.593-271.535 0-4.219-.144-8.29-.349-12.335 18.939-13.44 34.851-30.224 47.825-49.541z"/></svg>